<?xml version="1.0" encoding="utf-8"?>
<!-- Generator: Adobe Illustrator 19.0.0, SVG Export Plug-In . SVG Version: 6.00 Build 0)  -->
<!DOCTYPE svg PUBLIC "-//W3C//DTD SVG 1.1//EN" "http://www.w3.org/Graphics/SVG/1.1/DTD/svg11.dtd">
<svg version="1.1" id="Layer_1" xmlns="http://www.w3.org/2000/svg" xmlns:xlink="http://www.w3.org/1999/xlink" x="0px" y="0px"
	 viewBox="0 0 283.5 283.5" enable-background="new 0 0 283.5 283.5" xml:space="preserve">
<g>
	<circle fill="#EB3700" cx="141.7" cy="141.7" r="141.7"/>
	<g>
		<path fill="#FFFFFF" d="M42.2,92.5h9.1l19.3,45.3H60.3l-4.1-10.1h-19L33,137.8H23L42.2,92.5z M52.6,119l-6-14.6l-6,14.6H52.6z"/>
		<path fill="#FFFFFF" d="M62.8,92.9h10.6l9.3,30.4l10.1-30.6h8.5l10.1,30.6l9.3-30.4H131l-15.3,45.3h-8.6l-10.1-29.4l-10.1,29.4
			h-8.6L62.8,92.9z"/>
		<path fill="#FFFFFF" d="M142.5,92.5h9.1l19.3,45.3h-10.3l-4.1-10.1h-19l-4.1,10.1h-10.1L142.5,92.5z M152.9,119l-6-14.6l-6,14.6
			H152.9z"/>
		<path fill="#FFFFFF" d="M173,92.9h20.5c5.7,0,10.1,1.6,13.1,4.6c2.5,2.5,3.9,6,3.9,10.3v0.1c0,7.3-3.9,11.8-9.6,13.9l11,16h-11.6
			l-9.6-14.4h-7.8v14.4H173V92.9z M192.9,114.7c4.8,0,7.6-2.6,7.6-6.4v-0.1c0-4.2-3-6.4-7.8-6.4h-9.8v12.9H192.9z"/>
		<path fill="#FFFFFF" d="M214.6,92.9h17.5c14.1,0,23.9,9.7,23.9,22.3v0.1c0,12.6-9.8,22.5-23.9,22.5h-17.5V92.9z M232.1,128.9
			c8.1,0,13.5-5.5,13.5-13.4v-0.1c0-8-5.5-13.5-13.5-13.5h-7.6v27.1H232.1z"/>
		<path fill="#FFFFFF" d="M34.2,143.7h34.2v9H44.1v9.6h21.4v9H44.1v17.4h-9.9V143.7z"/>
		<path fill="#FFFFFF" d="M71.7,166.3v-0.1c0-12.8,10.1-23.2,23.9-23.2c13.9,0,23.8,10.3,23.8,23.1v0.1c0,12.8-10.1,23.2-23.9,23.2
			C81.7,189.4,71.7,179.1,71.7,166.3z M109.2,166.3v-0.1c0-7.7-5.6-14.1-13.6-14.1c-8,0-13.5,6.3-13.5,14v0.1
			c0,7.7,5.6,14.1,13.6,14.1C103.7,180.3,109.2,174,109.2,166.3z"/>
		<path fill="#FFFFFF" d="M125.7,143.7h20.5c5.7,0,10.1,1.6,13.1,4.6c2.5,2.5,3.9,6,3.9,10.3v0.1c0,7.3-3.9,11.8-9.6,13.9l11,16H153
			l-9.6-14.4h-7.8v14.4h-9.9V143.7z M145.6,165.5c4.8,0,7.6-2.6,7.6-6.4V159c0-4.2-3-6.4-7.8-6.4h-9.8v12.9H145.6z"/>
		<path fill="#FFFFFF" d="M167.6,166.3v-0.1c0-12.8,9.6-23.2,23.4-23.2c8.5,0,13.5,2.8,17.7,6.9l-6.3,7.3c-3.5-3.1-7-5.1-11.5-5.1
			c-7.6,0-13,6.3-13,14v0.1c0,7.7,5.3,14.1,13,14.1c5.1,0,8.3-2.1,11.8-5.3l6.3,6.4c-4.6,4.9-9.8,8-18.4,8
			C177.4,189.4,167.6,179.2,167.6,166.3z"/>
		<path fill="#FFFFFF" d="M214.4,143.7h33.9v8.8h-24.1v9.1h21.2v8.8h-21.2v9.4h24.4v8.8h-34.2V143.7z"/>
	</g>
</g>
</svg>
