<?xml version="1.0" encoding="UTF-8"?>
<svg version="1.1" xmlns="http://www.w3.org/2000/svg" width="120" height="120">
<path d="M0 0 C12.67509386 9.86461049 22.25717381 22.85371895 25 39 C26.57180562 56.85760429 24.19779234 73.18170456 12.9296875 87.66015625 C2.76123891 99.40524582 -10.56873812 108.81779591 -26.48803711 110.21899414 C-45.03223705 111.03774903 -60.82828565 108.17326778 -75.25 95.6875 C-86.44897541 85.03784143 -94.63903909 71.64752094 -95.3359375 55.86328125 C-95.64604179 36.81572149 -91.79590446 21.43138372 -78.33984375 7.28125 C-57.12005776 -13.40715571 -24.74166717 -16.54346244 0 0 Z " fill="#EB3801" transform="translate(95,10)"/>
<path d="M0 0 C2.26171875 -0.00390625 2.26171875 -0.00390625 5 1 C6.69467502 3.50910998 7.72362622 6.24777329 8.8125 9.0625 C9.12380859 9.82111328 9.43511719 10.57972656 9.75585938 11.36132812 C10.52135451 13.233847 11.26300003 15.11608366 12 17 C12.33 11.39 12.66 5.78 13 0 C24.41153846 -0.49615385 24.41153846 -0.49615385 27.390625 2.015625 C27.92171875 2.67046875 28.4528125 3.3253125 29 4 C29.33 2.68 29.66 1.36 30 0 C40.75100043 -0.68867618 40.75100043 -0.68867618 44.625 1.875 C47.82900801 4.74174401 47.94526258 5.44350285 48.375 9.8125 C48.34874901 13.4220118 48.05911955 13.92687846 45.625 16.9375 C43 19 43 19 41 20 C42.32 20.33 43.64 20.66 45 21 C45 22.65 45 24.3 45 26 C41.7 26 38.4 26 35 26 C35 26.99 35 27.98 35 29 C37.97 29 40.94 29 44 29 C44 30.32 44 31.64 44 33 C41.03 33 38.06 33 35 33 C35 34.32 35 35.64 35 37 C38.3 37 41.6 37 45 37 C45 38.32 45 39.64 45 41 C40.05 41 35.1 41 30 41 C29.67 40.34 29.34 39.68 29 39 C28.505 39.33 28.01 39.66 27.5 40 C23.98947469 41.40421012 20.69564048 41.59394222 17 41 C13.61813624 39.0572272 12.29735409 38.00642921 11.1875 34.25 C11.125625 33.5075 11.06375 32.765 11 32 C10.01 32.66 9.02 33.32 8 34 C8.33 36.31 8.66 38.62 9 41 C6.6875 41.3125 6.6875 41.3125 4 41 C2.375 38.5625 2.375 38.5625 1 36 C0.01 35.67 -0.98 35.34 -2 35 C-2 36.98 -2 38.96 -2 41 C-3.65 41 -5.3 41 -7 41 C-6.99476318 40.40985107 -6.98952637 39.81970215 -6.98413086 39.21166992 C-6.96333953 36.53695745 -6.95033299 33.86226199 -6.9375 31.1875 C-6.92912109 30.25873047 -6.92074219 29.32996094 -6.91210938 28.37304688 C-6.90888672 27.48037109 -6.90566406 26.58769531 -6.90234375 25.66796875 C-6.89710693 24.84578857 -6.89187012 24.0236084 -6.88647461 23.17651367 C-6.91258476 20.81827404 -6.91258476 20.81827404 -8 18 C-7.37915039 16.00708008 -7.37915039 16.00708008 -6.34765625 13.76953125 C-5.98349609 12.96708984 -5.61933594 12.16464844 -5.24414062 11.33789062 C-4.65922852 10.08782227 -4.65922852 10.08782227 -4.0625 8.8125 C-3.67642578 7.96751953 -3.29035156 7.12253906 -2.89257812 6.25195312 C-1.93699299 4.16382265 -0.97256217 2.08026396 0 0 Z " fill="#EC4512" transform="translate(60,39)"/>
<path d="M0 0 C3.70219508 2.54525912 4.7681855 4.18864925 6 8.5 C6 12.4426352 5.49535546 13.9883641 3 17 C0.01158633 19.32432174 -3.29702619 19.47116644 -7.03125 19.39453125 C-10.38693026 18.72206358 -11.95936396 16.59717314 -14 14 C-15.42662219 11.14675563 -15.31033868 9.16545451 -15 6 C-10.94113881 -0.08829179 -7.06795222 -1.06202391 0 0 Z " fill="#FDF1ED" transform="translate(45,61)"/>
<path d="M0 0 C6.86791582 -0.37123869 10.74607326 -0.58034639 16 4 C17.62068951 7.24137902 17.54928387 10.49664069 17 14 C15.25 17 15.25 17 12 19 C7.90369758 19.41016292 4.13675889 19.22729444 0 19 C0 12.73 0 6.46 0 0 Z " fill="#FEF8F6" transform="translate(91,39)"/>
<path d="M0 0 C2.475 0.495 2.475 0.495 5 1 C5.66 4.3 6.32 7.6 7 11 C7.66 11 8.32 11 9 11 C9.13277344 10.37351562 9.26554687 9.74703125 9.40234375 9.1015625 C9.57894531 8.28429688 9.75554688 7.46703125 9.9375 6.625 C10.11152344 5.81289063 10.28554688 5.00078125 10.46484375 4.1640625 C11 2 11 2 12 0 C13.32 0 14.64 0 16 0 C16.50615298 1.26839526 17.00469099 2.53983102 17.5 3.8125 C17.7784375 4.52019531 18.056875 5.22789063 18.34375 5.95703125 C19 8 19 8 19 11 C19.66 11 20.32 11 21 11 C21.13277344 10.37351562 21.26554687 9.74703125 21.40234375 9.1015625 C21.57894531 8.28429688 21.75554688 7.46703125 21.9375 6.625 C22.19853516 5.40683594 22.19853516 5.40683594 22.46484375 4.1640625 C23 2 23 2 24 0 C25.32 0 26.64 0 28 0 C26.70024676 6.71539173 24.70071112 12.72019113 22 19 C20.68 19 19.36 19 18 19 C17.49384702 17.73160474 16.99530901 16.46016898 16.5 15.1875 C16.2215625 14.47980469 15.943125 13.77210937 15.65625 13.04296875 C15 11 15 11 15 8 C14.34 8 13.68 8 13 8 C12.86722656 8.62648438 12.73445313 9.25296875 12.59765625 9.8984375 C12.33275391 11.12433594 12.33275391 11.12433594 12.0625 12.375 C11.88847656 13.18710937 11.71445312 13.99921875 11.53515625 14.8359375 C11 17 11 17 10 19 C8.35 18.67 6.7 18.34 5 18 C4.16112944 15.56427941 3.32873471 13.12666783 2.5 10.6875 C2.14228516 9.65206055 2.14228516 9.65206055 1.77734375 8.59570312 C0.76791737 5.61068511 0 3.17341086 0 0 Z " fill="#FDF1EE" transform="translate(27,39)"/>
<path d="M0 0 C12.47157424 -0.3704428 12.47157424 -0.3704428 14.89453125 1.328125 C16.62939405 3.9518751 16.37508937 5.93677012 16 9 C14.5 11.375 14.5 11.375 13 13 C13.495 13.61875 13.99 14.2375 14.5 14.875 C16 17 16 17 16 19 C13.6875 19.3125 13.6875 19.3125 11 19 C9.375 16.5625 9.375 16.5625 8 14 C7.01 13.67 6.02 13.34 5 13 C5 14.98 5 16.96 5 19 C3.35 19 1.7 19 0 19 C0 12.73 0 6.46 0 0 Z " fill="#FDF1EE" transform="translate(53,61)"/>
<path d="M0 0 C11.35782409 -0.49381844 11.35782409 -0.49381844 14.3671875 1.8203125 C16.53027414 4.70787792 16.45992944 6.47387427 16 10 C15.34 10.66 14.68 11.32 14 12 C14.26676204 13.98491642 14.26676204 13.98491642 15 16 C15.33 16.99 15.66 17.98 16 19 C13.6875 19.25 13.6875 19.25 11 19 C9.02389614 16.95575462 8 15.8823175 8 13 C6.68 13 5.36 13 4 13 C4 14.98 4 16.96 4 19 C2.68 19 1.36 19 0 19 C0 12.73 0 6.46 0 0 Z " fill="#FDF2EF" transform="translate(73,39)"/>
<path d="M0 0 C4.62 0 9.24 0 14 0 C14 1.32 14 2.64 14 4 C10.7 4 7.4 4 4 4 C4 4.99 4 5.98 4 7 C6.97 7 9.94 7 13 7 C13 8.32 13 9.64 13 11 C10.03 11 7.06 11 4 11 C4 12.32 4 13.64 4 15 C7.3 15 10.6 15 14 15 C14 16.32 14 17.64 14 19 C9.38 19 4.76 19 0 19 C0 12.73 0 6.46 0 0 Z " fill="#FDF3F0" transform="translate(91,61)"/>
<path d="M0 0 C2.29296875 0.0390625 2.29296875 0.0390625 5 1 C6.38721973 3.52167058 7.3687731 5.69571202 8.3125 8.375 C8.57611328 9.06078125 8.83972656 9.7465625 9.11132812 10.453125 C10.22425085 13.4247732 11 15.80482639 11 19 C9.68 19 8.36 19 7 19 C6.67 17.68 6.34 16.36 6 15 C4.72125 15.103125 3.4425 15.20625 2.125 15.3125 C1.40570313 15.37050781 0.68640625 15.42851563 -0.0546875 15.48828125 C-2.39519216 15.87393036 -2.39519216 15.87393036 -4 19 C-5.32 19 -6.64 19 -8 19 C-6.00386732 12.2813095 -3.2708579 6.19265192 0 0 Z " fill="#FCE7E1" transform="translate(18,39)"/>
<path d="M0 0 C2.26171875 0.00390625 2.26171875 0.00390625 5 1 C6.69891127 3.46415864 7.72500214 6.15993923 8.8125 8.9375 C9.12380859 9.67935547 9.43511719 10.42121094 9.75585938 11.18554688 C12 16.62573832 12 16.62573832 12 19 C9.5625 18.625 9.5625 18.625 7 18 C6.67 17.34 6.34 16.68 6 16 C4.10466658 15.53476937 4.10466658 15.53476937 1.9375 15.375 C0.638125 15.25125 -0.66125 15.1275 -2 15 C-2.33 16.32 -2.66 17.64 -3 19 C-4.32 19 -5.64 19 -7 19 C-6.33392561 14.59041892 -4.73375271 10.73427814 -2.9375 6.6875 C-2.65583984 6.04232422 -2.37417969 5.39714844 -2.08398438 4.73242188 C-1.3937257 3.15301642 -0.69746802 1.57623507 0 0 Z " fill="#FCE7E1" transform="translate(60,39)"/>
<path d="M0 0 C0.66 0.99 1.32 1.98 2 3 C1.67 3.66 1.34 4.32 1 5 C0.36191406 4.98839844 -0.27617188 4.97679688 -0.93359375 4.96484375 C-1.75988281 4.95582031 -2.58617188 4.94679688 -3.4375 4.9375 C-4.26121094 4.92589844 -5.08492187 4.91429688 -5.93359375 4.90234375 C-7.99163938 4.76732652 -7.99163938 4.76732652 -9 6 C-9.16666667 9.5 -9.16666667 9.5 -9 13 C-7.89674453 14.3337793 -7.89674453 14.3337793 -5.125 14.0625 C-4.09375 14.041875 -3.0625 14.02125 -2 14 C-1.01 14 -0.02 14 1 14 C1 15.32 1 16.64 1 18 C-2.20173254 19.60086627 -5.52577059 19.49917089 -9 19 C-11.8100346 17.20636089 -13.50940468 15.98119065 -15 13 C-15.46650092 8.25724067 -15.66962226 6.07139562 -13.125 2 C-8.90656526 -0.69979823 -4.90607853 -1.04199898 0 0 Z " fill="#FDF0EC" transform="translate(86,61)"/>
<path d="M0 0 C4.95 0 9.9 0 15 0 C15 1.32 15 2.64 15 4 C11.7 4 8.4 4 5 4 C5 5.32 5 6.64 5 8 C7.97 8 10.94 8 14 8 C14 8.99 14 9.98 14 11 C11.03 11 8.06 11 5 11 C5 13.64 5 16.28 5 19 C3.35 19 1.7 19 0 19 C0 12.73 0 6.46 0 0 Z " fill="#FDEBE6" transform="translate(14,61)"/>
<path d="M0 0 C2.56687367 3.8503105 1.83288724 5.58569763 1 10 C-5.40096618 11.32850242 -5.40096618 11.32850242 -7.9375 9.9375 C-9.49286352 7.10124887 -9.46333792 5.17717433 -9 2 C-6.14911792 -1.27323499 -4.00227856 -1.47452368 0 0 Z " fill="#EB3F0A" transform="translate(44,65)"/>
<path d="M0 0 C6.75 0.75 6.75 0.75 9 3 C8.8125 6.5 8.8125 6.5 8 10 C5 12 5 12 0 12 C0 8.04 0 4.08 0 0 Z " fill="#EC4511" transform="translate(95,43)"/>
<path d="M0 0 C0.33 0 0.66 0 1 0 C1 6.27 1 12.54 1 19 C4.3 19 7.6 19 11 19 C11 19.33 11 19.66 11 20 C5.72 20 0.44 20 -5 20 C-4.01 19.34 -3.02 18.68 -2 18 C-2.66 17.01 -3.32 16.02 -4 15 C-3.68890262 12.66676967 -2.91358334 10.79476043 -2 8.625 C-0.90814525 5.75888129 -0.42290178 3.0307961 0 0 Z " fill="#EE5729" transform="translate(90,39)"/>
<path d="M0 0 C5.75 -0.125 5.75 -0.125 8 1 C7.125 4.875 7.125 4.875 6 6 C4.00041636 6.04080783 1.99954746 6.04254356 0 6 C0 4.02 0 2.04 0 0 Z " fill="#EE582A" transform="translate(77,43)"/>
<path d="M0 0 C2.31 0 4.62 0 7 0 C7.5625 1.9375 7.5625 1.9375 8 4 C7 5 7 5 3.4375 5.0625 C2.303125 5.041875 1.16875 5.02125 0 5 C0 3.35 0 1.7 0 0 Z " fill="#ED4A18" transform="translate(57,65)"/>
</svg>
